<svg xmlns="http://www.w3.org/2000/svg" xml:space="preserve" style="enable-background:new 0 0 496.158 496.158"
    viewBox="0 0 496.2 496.2">
    <path d="M248 0a248 248 0 1 0 0 496 248 248 0 0 0 0-496z" fill="lightgrey" />
    <path d="M367 111H129c-4 0-7 3-7 7v279c0 4 3 7 7 7h238c4 0 7-3 7-7V118c0-4-3-7-7-7z" fill='black'/>
    <path d="M367 92H142v263h225c4 0 7-3 7-7V99c0-4-3-7-7-7z" fill='grey' />
    <path d="M139 92h5v267h-5z" fill='black' />
    <path d="M129 92c-4 0-7 3-7 7v298c0 4 3 7 7 7h11V92h-11z" fill='black' />
    <path d="M146 355c-7 0-13 6-13 14v9c0 7 6 13 13 13h202c8 0 14-6 14-13v-23H146z" fill='lightgrey' />
    <path d="M411 395c-3-24-4-38-12-63-8-26-27-66-27-66l-23 3-40 10-49 21 36 88 32 41 22 46c28-13 53-31 75-53l-14-27z"
        fill='white' />
    <path
        d="m289 297-44-94c-3-7-11-10-17-7s-8 10-5 17l41 96c3 7 11 11 18 8s11-12 7-20zM319 285l-50-112c-3-7-11-11-17-8-7 3-9 11-6 18l46 114c3 8 12 11 19 8s11-12 8-20zM348 273l-40-94c-3-8-11-12-18-9s-10 11-7 19l38 95c3 7 12 11 19 8 6-3 11-12 8-19zM371 265l-19-54c-3-7-10-10-15-8-6 2-8 9-6 16l19 55c3 8 12 12 19 9 6-2 5-10 2-18zM279 339s-18-23-37-34c-3-1-23-11-26 3-2 5 11 15 21 28s19 28 26 32l39 24 10-44-33-9z"
        fill='white' />
    <path d="M279 339c-5-7-13-24-13-24l11 25 10 17 2-2-10-16z" fill='white' />
</svg>